HIERARCHY
ROOT Hips
{
    OFFSET 0.000000 0.000000 0.000000
    CHANNELS 6 Xposition Yposition Zposition Zrotation Xrotation Yrotation
    JOINT Spine
    {
        OFFSET -0.000000 14.517291 0.000000
        CHANNELS 3 Zrotation Xrotation Yrotation
        JOINT Spine1
        {
            OFFSET -0.000000 37.558300 0.000000
            CHANNELS 3 Zrotation Xrotation Yrotation
            JOINT Neck
            {
                OFFSET -0.000000 37.404057 3.400369
                CHANNELS 3 Zrotation Xrotation Yrotation
                JOINT Head
                {
                    OFFSET -0.000000 24.785618 -3.540803
                    CHANNELS 3 Zrotation Xrotation Yrotation
                    End Site
                    {
                        OFFSET -0.000000 35.408028 0.000000
                    }
                }
            }
            JOINT LeftShoulder
            {
                OFFSET 6.992933 33.973492 -0.192664
                CHANNELS 3 Zrotation Xrotation Yrotation
                JOINT LeftArm
                {
                    OFFSET 21.527611 0.000000 0.000000
                    CHANNELS 3 Zrotation Xrotation Yrotation
                    JOINT LeftForeArm
                    {
                        OFFSET 56.353916 0.000000 0.000000
                        CHANNELS 3 Zrotation Xrotation Yrotation
                        JOINT LeftHand
                        {
                            OFFSET 47.774071 0.000000 0.000000
                            CHANNELS 3 Zrotation Xrotation Yrotation
                            End Site
                            {
                                OFFSET 26.556021 0.000000 0.000000
                            }
                        }
                    }
                }
            }
            JOINT RightShoulder
            {
                OFFSET -7.065357 33.973492 -0.192664
                CHANNELS 3 Zrotation Xrotation Yrotation
                JOINT RightArm
                {
                    OFFSET -21.527611 0.000000 0.000000
                    CHANNELS 3 Zrotation Xrotation Yrotation
                    JOINT RightForeArm
                    {
                        OFFSET -56.353916 0.000000 0.000000
                        CHANNELS 3 Zrotation Xrotation Yrotation
                        JOINT RightHand
                        {
                            OFFSET -47.774071 0.000000 0.000000
                            CHANNELS 3 Zrotation Xrotation Yrotation
                            End Site
                            {
                                OFFSET -26.556021 0.000000 0.000000
                            }
                        }
                    }
                }
            }
        }
    }
    JOINT LeftUpLeg
    {
        OFFSET 17.704014 0.000000 0.000000
        CHANNELS 3 Zrotation Xrotation Yrotation
        JOINT LeftLeg
        {
            OFFSET -0.000000 -81.181816 0.000000
            CHANNELS 3 Zrotation Xrotation Yrotation
            JOINT LeftFoot
            {
                OFFSET -0.000000 -62.821102 0.000000
                CHANNELS 3 Zrotation Xrotation Yrotation
                JOINT LeftToeBase
                {
                    OFFSET -0.000000 -11.507608 26.556021
                    CHANNELS 3 Zrotation Xrotation Yrotation
                    End Site
                    {
                        OFFSET -0.000000 0.000000 7.081605
                    }
                }
            }
        }
    }
    JOINT RightUpLeg
    {
        OFFSET -17.704014 0.000000 0.000000
        CHANNELS 3 Zrotation Xrotation Yrotation
        JOINT RightLeg
        {
            OFFSET -0.000000 -81.181816 0.000000
            CHANNELS 3 Zrotation Xrotation Yrotation
            JOINT RightFoot
            {
                OFFSET -0.000000 -62.821102 0.000000
                CHANNELS 3 Zrotation Xrotation Yrotation
                JOINT RightToeBase
                {
                    OFFSET -0.000000 -11.507608 26.556021
                    CHANNELS 3 Zrotation Xrotation Yrotation
                    End Site
                    {
                        OFFSET -0.000000 0.000000 7.081605
                    }
                }
            }
        }
    }
}
MOTION
Frames:    9
Frame Time:    0.008333
24.807487    157.138794    -34.186424    1.109207    -0.105175    -41.569813    5.997746    0.454470    8.501793    -2.830966    -1.118921    2.814764    16.858168    -10.248673    11.116310    -10.174813    14.082852    7.329675    9.606304    -0.276574    -18.502998    -16.017269    -11.859496    -52.151897    6.779784    -38.566582    -38.800652    -27.861931    -27.247026    -42.654377    -10.904971    -9.558277    9.979063    45.499512    -17.285896    93.588257    -36.902847    -53.987663    66.557487    24.534744    -28.365103    40.779533    16.512575    -19.928326    1.681802    -11.330097    17.302872    -4.125264    -8.605133    1.051165    38.157318    0.000000    0.000000    0.000000    -14.343723    3.953711    -8.830849    5.610820    23.807217    -3.165686    6.399191    -19.104712    -17.363401    0.000000    0.000000    0.000000    
24.819971    157.137756    -34.185539    1.092936    -0.113338    -41.620575    5.990921    0.454803    8.493523    -2.842266    -1.111946    2.812083    16.859316    -10.261005    11.114166    -10.136734    14.138165    7.331095    9.621566    -0.290950    -18.491438    -15.982239    -11.789717    -52.166714    6.844811    -38.612240    -38.733448    -27.876930    -27.276213    -42.657539    -10.901150    -9.500146    9.986113    45.446217    -17.271854    93.553596    -37.015430    -53.918892    66.486916    24.485306    -28.233801    40.781895    16.528572    -19.906815    1.679929    -11.337993    17.321178    -4.121634    -8.608128    1.020251    38.186687    0.000000    0.000000    0.000000    -14.355309    3.960798    -8.825166    5.613820    23.788528    -3.162666    6.404029    -19.088902    -17.303410    0.000000    0.000000    0.000000    
24.831642    157.134216    -34.192257    1.080131    -0.114600    -41.670654    5.976507    0.451754    8.487691    -2.838200    -1.108939    2.810179    16.836891    -10.269973    11.104052    -10.081122    14.172495    7.328847    9.619901    -0.288996    -18.495869    -15.873822    -11.574224    -52.189339    7.214806    -38.817558    -38.529636    -28.009703    -27.356058    -42.662731    -10.882221    -9.459201    9.997921    45.385357    -17.283430    93.427078    -36.883263    -53.820740    66.650162    24.316734    -28.170839    40.742519    16.553883    -19.891659    1.675424    -11.355033    17.332855    -4.097717    -8.592785    1.005727    38.206936    0.000000    0.000000    0.000000    -14.363059    3.949495    -8.816206    5.618712    23.792265    -3.126549    6.394934    -19.092335    -17.290916    0.000000    0.000000    0.000000    
24.848484    157.131958    -34.195145    1.068740    -0.121596    -41.719296    6.043215    0.463819    8.436441    -3.274928    -1.385999    2.781153    17.529140    -9.679587    11.134724    -10.352951    13.947864    7.256686    10.175210    0.091622    -18.740000    -16.117220    -11.945268    -52.139683    7.089241    -38.634499    -38.469196    -27.897409    -27.238083    -42.639992    -10.093913    -9.193193    10.470242    44.874874    -17.463800    93.003159    -36.958866    -53.822998    66.525711    24.310545    -28.167824    40.799965    16.564457    -19.871750    1.677106    -11.356916    17.344017    -4.075010    -8.597735    0.978307    38.212498    0.000000    0.000000    0.000000    -14.374214    3.937903    -8.799932    5.620433    23.800282    -3.124648    6.397398    -19.089281    -17.255043    0.000000    0.000000    0.000000    
24.868034    157.129456    -34.204872    1.055919    -0.124913    -41.765587    5.930034    0.452918    8.472561    -2.799499    -1.098842    2.805703    16.667749    -10.311100    11.036224    -9.802999    14.209681    7.301652    9.598765    -0.300366    -18.511955    -15.897596    -11.657413    -52.204773    7.105576    -38.750122    -38.539066    -27.946579    -27.334881    -42.667778    -10.812773    -9.330493    10.020235    45.321007    -17.226160    93.402100    -36.870174    -53.673069    66.696625    24.167263    -28.007605    40.662361    16.584080    -19.855862    1.671805    -11.372635    17.345665    -4.041588    -8.583571    0.975568    38.226276    0.000000    0.000000    0.000000    -14.384680    3.920878    -8.763597    5.642870    23.812620    -3.110857    6.395385    -19.095463    -17.271687    0.000000    0.000000    0.000000    
24.893946    157.123108    -34.215824    1.042950    -0.125160    -41.808475    5.922746    0.454899    8.471966    -2.781800    -1.083947    2.806068    16.598150    -10.333272    11.015944    -9.729628    14.217025    7.296231    9.580940    -0.309266    -18.532415    -15.899940    -11.664240    -52.201538    7.111959    -38.779457    -38.554165    -27.957043    -27.357244    -42.684410    -10.803102    -9.253046    10.006395    45.329792    -17.200747    93.423820    -36.650406    -53.606941    66.882988    24.098808    -28.006508    40.630253    16.603668    -19.851477    1.667241    -11.389167    17.361059    -3.994468    -8.566318    0.967551    38.226074    0.000000    0.000000    0.000000    -14.391747    3.899227    -8.732573    5.650287    23.832731    -3.078882    6.372620    -19.098379    -17.271444    0.000000    0.000000    0.000000    
24.917517    157.114334    -34.227909    1.025943    -0.126796    -41.849823    5.897993    0.454921    8.464935    -2.732387    -1.055821    2.804814    16.546564    -10.330967    11.009599    -9.707996    14.172663    7.299073    9.558353    -0.308950    -18.532162    -15.902411    -11.674331    -52.211941    7.149173    -38.802940    -38.567429    -27.967001    -27.363848    -42.699856    -10.788275    -9.201255    10.003062    45.313694    -17.160639    93.434662    -36.372341    -53.583454    67.118698    24.091936    -28.075031    40.558399    16.629589    -19.842237    1.673765    -11.410108    17.375780    -3.971732    -8.553802    0.944992    38.246540    0.000000    0.000000    0.000000    -14.392809    3.886492    -8.697379    5.662277    23.836983    -3.098044    6.366697    -19.107536    -17.246262    0.000000    0.000000    0.000000    
24.950691    157.103973    -34.240257    1.022363    -0.128448    -41.882992    5.879468    0.449293    8.454074    -2.704097    -1.028397    2.801970    16.520782    -10.335635    11.005534    -9.718781    14.140504    7.297435    9.541272    -0.306421    -18.535866    -15.884857    -11.663117    -52.214794    7.206092    -38.865353    -38.580963    -27.986629    -27.409508    -42.698170    -10.778630    -9.146137    10.006928    45.313416    -17.126682    93.442413    -36.065319    -53.564201    67.375435    24.160532    -28.127100    40.525070    16.637344    -19.854170    1.671176    -11.418776    17.408909    -3.957672    -8.541019    0.931604    38.253231    0.000000    0.000000    0.000000    -14.408489    3.859955    -8.670893    5.677454    23.861675    -3.097785    6.355353    -19.131420    -17.239853    0.000000    0.000000    0.000000    
24.985079    157.094757    -34.253059    1.008031    -0.133623    -41.916489    5.871804    0.455233    8.439788    -2.682523    -0.993813    2.798283    16.519207    -10.338961    11.021854    -9.762846    14.094488    7.309535    9.543306    -0.302130    -18.517857    -15.907004    -11.689556    -52.237350    7.246099    -38.875916    -38.597401    -28.010965    -27.393728    -42.718430    -10.773842    -9.112891    10.036302    45.307091    -17.097719    93.422829    -35.809498    -53.553043    67.585602    24.246073    -28.161221    40.541309    16.650074    -19.859959    1.683264    -11.431417    17.444715    -3.926142    -8.524165    0.920285    38.249413    0.000000    0.000000    0.000000    -14.419519    3.844941    -8.640106    5.696006    23.875692    -3.120790    6.337776    -19.141068    -17.205694    0.000000    0.000000    0.000000    
